# xmcd CD database file
#
# Track frame offsets:
#	150
#	12137
#	31295
#	48697
#	64145
#	80270
#	95237
#	112365
#	129887
#	147107
#
# Disc length: 2227 seconds
#
# Revision: 2
# Processed by: cddbd v1.5.2PL0 Copyright (c) Steve Scherf et al.
# Submitted via: CDex 1.70beta2
#
DISCID=8808b10a
DTITLE=Les Taylor - Blue Kentucky Wind
DYEAR=1991
DGENRE=Country
TTITLE0=I Gotta Mind to Go Crazyy
TTITLE1=Tell Me About It
TTITLE2=Welcome to the Real World of Love
TTITLE3=Try Me
TTITLE4=The Very First Lasting Love (w/ Shelby Lynn)
TTITLE5=After You
TTITLE6=For The Rest of Your Life (aka You Have The Right to Remain Silent)
TTITLE7=If This Ain't The Real Thing
TTITLE8=Blue Kentucky Wind
TTITLE9=The Porchlight
EXTD=YEAR: 1991
EXTT0=
EXTT1=
EXTT2=
EXTT3=
EXTT4=
EXTT5=
EXTT6=
EXTT7=
EXTT8=
EXTT9=
PLAYORDER=
